<?xml version="1.0" encoding="utf-8"?>
<!-- Generator: Adobe Illustrator 19.0.0, SVG Export Plug-In . SVG Version: 6.00 Build 0)  -->
<svg version="1.1" id="Layer_1" xmlns="http://www.w3.org/2000/svg" xmlns:xlink="http://www.w3.org/1999/xlink" x="0px" y="0px"
	 viewBox="0 0 116.1 472" style="enable-background:new 0 0 116.1 472;" xml:space="preserve">
<style type="text/css">
	.st0{fill:#FFFFFF;}
</style>
<g id="XMLID_1717_">
	<polygon id="XMLID_1726_" class="st0" points="2.5,0 113.5,0 113.5,71 93.5,71 93.5,22 64.5,22 64.5,66 45.5,66 45.5,22 2.5,22 	
		"/>
	<polygon id="XMLID_1725_" class="st0" points="2.5,363 113.5,363 113.5,385.1 41.5,417.4 41.5,417.7 113.5,450 113.5,472 2.5,472 
		2.5,451 70.5,451 70.5,450.9 2.5,419.3 2.5,415.8 70.5,384.1 70.5,383 2.5,383 	"/>
	<path id="XMLID_1722_" class="st0" d="M29.2,102.2c-6.3,4.9-9.5,11.1-9.5,18.8c0,7.6,3.1,13.9,9.3,18.8c6.2,4.9,16.2,7.3,30,7.3
		c12.1,0,21.3-2.5,27.7-7.6c6.4-5,9.5-11.2,9.5-18.5c0-7.4-3.2-13.6-9.5-18.6c-6.4-5-15.6-7.5-27.7-7.5
		C45.4,94.9,35.5,97.3,29.2,102.2 M3.3,138.9c-2.2-5.6-3.3-11.6-3.3-18c0-6.4,1.1-12.3,3.3-18c2.2-5.6,5.6-10.7,10.1-15.3
		c4.5-4.6,10.7-8.3,18.4-11c7.8-2.7,16.8-4.1,27.1-4.1c9.2,0,17.5,1.3,25,4.1c7.4,2.7,13.4,6.4,18,11c4.6,4.6,8.1,9.7,10.5,15.4
		c2.4,5.7,3.6,11.6,3.6,17.9c0,6.2-1.2,12.2-3.6,17.9c-2.4,5.7-5.9,10.8-10.5,15.4c-4.6,4.6-10.6,8.3-18,11
		c-7.4,2.7-15.7,4.1-25,4.1c-10.3,0-19.3-1.4-27.1-4.1c-7.8-2.7-13.9-6.4-18.4-11C8.9,149.6,5.6,144.5,3.3,138.9"/>
	<path id="XMLID_1721_" class="st0" d="M38.5,266h75v22H39.6c-6,0-10.8,1.8-14.4,5.3c-3.6,3.4-5.3,8.6-5.3,15.2
		c0,6.7,1.7,11.8,5.2,15.2c3.5,3.5,8.2,5.2,14.1,5.2h74.2v21H38.6c-12.5,0-22.1-3.5-28.7-11.2C3.3,331.2,0,321.2,0,308.4
		c0-12.7,3.3-23,9.9-30.6c6.6-7.6,16.2-11.7,28.7-11.7"/>
	<path id="XMLID_1718_" class="st0" d="M62.5,198v22.3c0,12.2,5.3,18.3,15.9,18.3c10.7,0,16.1-6.1,16.1-18.3V198H62.5z M2.5,177h111
		v45c0,11.4-3.1,20.7-9.5,27.7c-6.4,7-15,10.6-25.8,10.6c-8.1,0-14.9-2.1-20.5-6.3c-5.6-4.2-9.5-9.9-11.8-17.2L2.5,260.5v-23.2
		l41-22.4V198h-41V177z"/>
</g>
</svg>
