<?xml version="1.0" encoding="utf-8"?>
<!-- Generator: Adobe Illustrator 19.0.0, SVG Export Plug-In . SVG Version: 6.00 Build 0)  -->
<svg version="1.1" id="Layer_1" xmlns="http://www.w3.org/2000/svg" xmlns:xlink="http://www.w3.org/1999/xlink" x="0px" y="0px"
	 viewBox="0 0 264.9 120.8" style="enable-background:new 0 0 264.9 120.8;" xml:space="preserve">
<style type="text/css">
	.st0{fill:#FFFFFF;}
</style>
<g id="XMLID_1706_">
	<g id="XMLID_1732_">
		<path id="XMLID_9_" class="st0" d="M215.9,116.5h-23v-43h-58v43h-22V4.5h72v21h-50v28h58v-49h72v21h-49v28h44v20h-44V116.5z
			 M195.9,113.5h17v-43h44v-14h-44v-34h49v-15h-66v49h-64v-34h50v-15h-66v106h16v-43h64V113.5z"/>
	</g>
	<g id="XMLID_1731_">
		<path id="XMLID_5_" class="st0" d="M50.7,101.1c-8.4,0-15.3-3.5-20.6-10.4c-5.2-6.7-7.8-17.2-7.8-31.3c0-12.6,2.7-22.4,8-29.1
			c5.4-6.9,12.3-10.5,20.5-10.5c8,0,14.9,3.5,20.4,10.4c5.4,6.8,8.1,16.6,8.1,29.1c0,14.3-2.6,24.8-7.8,31.4
			C66,97.7,59.1,101.1,50.7,101.1z M50.7,22.9c-7.2,0-13.3,3.1-18.1,9.3c-4.9,6.2-7.3,15.4-7.3,27.3c0,13.4,2.4,23.3,7.2,29.4
			c4.7,6.1,10.9,9.2,18.3,9.2c7.4,0,13.5-3,18.3-9.1c4.8-6.1,7.2-16,7.2-29.6c0-11.9-2.5-21.1-7.4-27.3C63.9,26,57.8,22.9,50.7,22.9
			z"/>
	</g>
	<g id="XMLID_1729_">
		<path id="XMLID_2_" class="st0" d="M50.7,120.8c-6.6,0-13-1.2-18.8-3.5c-5.9-2.3-11.3-5.9-16.1-10.6C10.9,102,7,95.4,4.2,87.3
			C1.4,79.3,0,70,0,59.5C0,50,1.4,41.3,4.2,33.7C7,26,10.9,19.6,15.7,14.8c4.8-4.8,10.3-8.5,16.2-11C37.9,1.3,44.2,0,50.7,0
			s12.9,1.3,18.8,3.8c5.9,2.5,11.4,6.2,16.2,11c4.8,4.8,8.7,11.2,11.5,18.9c2.8,7.7,4.2,16.3,4.2,25.8c0,10.5-1.4,19.9-4.2,27.9
			c-2.8,8.1-6.7,14.6-11.6,19.4c-4.8,4.7-10.2,8.3-16.1,10.6C63.7,119.6,57.4,120.8,50.7,120.8z M50.7,3c-6.1,0-12.1,1.2-17.6,3.5
			c-5.6,2.3-10.7,5.8-15.2,10.4C13.3,21.4,9.7,27.4,7,34.7C4.4,42,3,50.4,3,59.5c0,10.2,1.4,19.2,4,26.9c2.7,7.7,6.3,13.8,10.8,18.2
			c4.5,4.4,9.6,7.8,15.1,10c5.5,2.2,11.5,3.3,17.7,3.3s12.2-1.1,17.7-3.3c5.5-2.2,10.6-5.5,15.1-10c4.5-4.4,8.2-10.5,10.8-18.2
			c2.7-7.7,4-16.7,4-26.9c0-9.1-1.4-17.4-4-24.8c-2.7-7.3-6.3-13.3-10.8-17.8c-4.5-4.5-9.6-8-15.2-10.4C62.8,4.2,56.8,3,50.7,3z"/>
	</g>
</g>
</svg>
